<svg width="1200" height="720" viewBox="0 0 1200 720" fill="none" xmlns="http://www.w3.org/2000/svg">
<mask id="path-1-outside-1_14_69" maskUnits="userSpaceOnUse" x="2" y="119" width="1195" height="480" fill="black">
<rect fill="white" x="2" y="119" width="1195" height="480"/>
<path fill-rule="evenodd" clip-rule="evenodd" d="M675.984 121.538C658.521 123.742 651.252 126.254 565.952 159.571C528.477 174.208 493.542 187.773 488.319 189.717C433.951 209.94 388.2 217.544 300.637 220.908C296.786 221.056 295.062 221.448 295.062 222.175C295.062 222.754 294.319 223.227 293.411 223.227C292.199 223.227 291.759 222.676 291.759 221.16C291.759 219.506 291.346 219.092 289.694 219.092C288.464 219.092 287.629 219.566 287.629 220.263C287.629 221.815 288.619 221.745 203.389 226.151C163.644 228.205 124.807 230.435 117.085 231.107C64.1945 235.705 41.8915 242.904 25.2038 260.767C5.21907 282.159 -0.194583 306.818 10.1025 329.559C20.36 352.21 39.8772 364.593 67.5319 365.996C76.0921 366.43 90.6111 365.412 180.678 358.062C186.129 357.618 209.356 355.754 232.295 353.922C282.329 349.924 280.719 350.107 288.447 347.547C296.79 344.783 303.362 340.673 310.62 333.679C319.357 325.259 323.276 319.541 335.877 296.828C348.526 274.026 352.096 269.673 362.162 264.786C377.534 257.323 409.899 251.669 442.069 250.827C462.399 250.294 503.753 251.641 508.321 252.985C518.887 256.094 520.736 267.135 511.475 271.812C505.757 274.699 495.667 274.347 469.764 270.359C456.475 268.313 445.481 267.061 440.859 267.068C426.728 267.088 411.579 271.534 397.903 279.673C388.204 285.445 375.62 297.38 371.806 304.426C369.183 309.27 368.979 310.183 368.979 317.089C368.979 325.505 370.108 328.664 374.873 333.577C378.364 337.176 382.823 339.54 388.367 340.73C393.035 341.732 405.041 341.068 442.649 337.724C485.927 333.877 507.25 329.64 537.812 318.819C564.629 309.323 572.968 307.46 588.67 307.46C607.744 307.46 625.852 313.694 642.759 326.08C645.257 327.91 657.335 337.45 669.6 347.277C681.864 357.106 699.703 371.262 709.242 378.736C731.167 395.916 737.101 401.671 738.443 407.06C740.206 414.145 736.915 420.313 729.845 423.178C728.507 423.721 662.931 439.432 584.121 458.094C505.311 476.755 437.857 492.757 434.223 493.654C410.431 499.525 394.168 516.976 391.841 539.131C389.561 560.835 399.825 581.148 417.854 590.612C426.254 595.022 432.65 596.477 443.308 596.402C454.51 596.322 457.142 595.656 492.861 583.845C520.659 574.654 562.779 560.767 619.634 542.049C637.122 536.292 667.04 526.42 686.117 520.112C843.243 468.157 955.946 431.346 963.201 429.61C981.37 425.262 997.449 423.355 1015.94 423.355C1032.08 423.356 1040.88 424.27 1075.52 429.544C1114.54 435.483 1119.77 436.068 1129.1 435.534C1148.53 434.424 1164.56 423.479 1174.39 404.607C1182.47 389.095 1193.94 358.301 1194.84 349.704C1195.57 342.805 1193.75 333.992 1190.23 327.388C1186.62 320.608 1178.37 313.009 1170.94 309.621C1167.75 308.163 1144.5 300.55 1119.29 292.704C896.924 223.495 903.376 225.613 881.416 214.636C863.477 205.668 852.351 197.937 819.432 171.564C777.898 138.289 758.312 128.492 722.456 123.055C710.179 121.192 685.183 120.377 675.984 121.538ZM717.914 131.923C749.259 135.942 770.637 145.408 800.089 168.308C805.54 172.546 817.061 181.633 825.692 188.502C856.788 213.25 873.632 223.15 904.465 234.798C910.197 236.963 970.634 256.127 1038.77 277.384C1106.9 298.641 1164.96 317.154 1167.79 318.523C1173.87 321.472 1180.55 328.154 1183.08 333.834C1185.78 339.905 1186.07 349.957 1183.73 357.01C1180.27 367.454 1169.53 393.985 1166.09 400.59C1158.93 414.329 1146.27 423.852 1132.35 425.975C1124.26 427.208 1117.62 426.515 1074.69 419.962C1038.39 414.421 1023.31 413.244 1002.88 414.362C978.58 415.692 963.717 418.863 929.753 429.965C916.126 434.42 805.003 471.022 682.814 511.303C560.625 551.584 458.236 585.11 455.283 585.806C448.376 587.433 437.144 587.443 430.949 585.827C413.246 581.21 400.775 564.411 400.775 545.181C400.775 527.439 411.873 511.503 428.591 505.24C431.04 504.322 443.158 501.168 455.52 498.23C467.881 495.293 534.486 479.492 603.529 463.119C672.573 446.745 730.785 432.754 732.89 432.028C737.744 430.353 742.886 425.964 745.793 421.011C747.719 417.73 748.059 416.223 748.059 410.95C748.059 399.113 744.316 394.421 719.064 374.597C711.845 368.93 693.303 354.197 677.859 341.858C641.327 312.67 635.986 309.114 620.46 303.638C607.594 299.1 601.427 298.061 587.838 298.144C572.588 298.235 563.665 299.965 544.892 306.469C511.407 318.07 498.005 321.504 471.388 325.302C457.745 327.249 417.005 330.755 402.014 331.274C389.194 331.717 388.691 331.671 385.127 329.741C377.684 325.711 375.626 316.3 380.406 308.16C383.225 303.358 393.405 293.687 400.424 289.141C411.698 281.84 425.179 277.224 437.527 276.438C443.805 276.039 448.426 276.518 467.259 279.525C496.123 284.133 506.652 284.407 514.592 280.757C528.515 274.36 531.378 259.201 520.511 249.418C514.996 244.453 510.113 243.186 492.448 242.136C472.15 240.93 423.651 241.689 411.512 243.405C373.639 248.757 356.978 254.207 345.58 264.973C340.58 269.696 338.88 272.251 329.779 288.715C324.171 298.862 317.621 310.142 315.226 313.781C309.957 321.787 301.364 330.413 294.649 334.439C285.981 339.635 281.598 340.504 252.572 342.78C226.773 344.804 224.101 344.855 147.229 344.807C68.3082 344.757 62.2627 344.562 53.4919 341.771C38.6706 337.056 28.4057 324.857 26.7391 309.978C24.4167 289.243 35.2523 271.936 57.4809 260.877C76.1433 251.592 84.0313 250.52 167.051 245.977C196.349 244.374 230.169 242.524 242.206 241.866C254.243 241.208 269.583 240.417 276.294 240.106C283.005 239.796 288.695 239.221 288.938 238.827C289.18 238.435 290.1 238.113 290.982 238.113C292.141 238.113 292.585 238.685 292.585 240.18C292.585 242.794 295.811 243.138 296.475 240.594C296.797 239.362 297.601 238.94 299.626 238.94C306.037 238.94 345.136 236.316 355.352 235.2C381.181 232.379 407.251 227.691 431.087 221.578C462.534 213.515 476.142 208.578 523.419 188.084C563.428 170.74 568.86 168.507 610.962 152.084C655.282 134.795 662.984 132.404 680.131 130.611C688.572 129.729 705.348 130.311 717.914 131.923ZM423.676 218.765C423.402 219.04 422.689 219.069 422.094 218.83C421.435 218.567 421.63 218.371 422.593 218.331C423.463 218.295 423.95 218.49 423.676 218.765ZM419.977 219.64C419.41 219.87 418.48 219.87 417.912 219.64C417.345 219.411 417.809 219.223 418.945 219.223C420.08 219.223 420.545 219.411 419.977 219.64ZM412.315 221.213C390.438 226.534 354.369 231.265 321.552 233.119C298.866 234.4 295.888 234.319 295.888 232.422C295.888 230.616 297.651 230.425 327.685 228.979C351.039 227.854 378.243 225.393 397.059 222.703C405.235 221.534 412.08 220.429 412.269 220.249C412.458 220.067 413.573 219.961 414.747 220.011C416.058 220.067 415.122 220.53 412.315 221.213ZM291.759 225.295C291.759 226.811 291.319 227.362 290.107 227.362C288.895 227.362 288.455 226.811 288.455 225.295C288.455 223.779 288.895 223.227 290.107 223.227C291.319 223.227 291.759 223.779 291.759 225.295ZM295.062 228.603C295.062 230.119 294.622 230.67 293.411 230.67C292.199 230.67 291.759 231.222 291.759 232.738C291.759 234.391 292.172 234.805 293.824 234.805C295.337 234.805 295.888 235.246 295.888 236.459C295.888 237.542 295.337 238.113 294.292 238.113C293.414 238.113 292.46 237.369 292.172 236.459C291.521 234.406 293.655 234.406 254.881 236.466C167.042 241.131 103.547 244.899 93.6793 246.031C67.4592 249.04 48.3483 257.367 35.121 271.55C26.1188 281.202 21.6839 292.01 21.7078 304.237C21.7499 325.872 34.082 341.35 56.1347 347.447C62.2966 349.15 64.7297 349.248 112.13 349.698L161.682 350.168L116.672 353.754C86.4272 356.165 69.9005 357.157 66.293 356.78C45.5692 354.614 31.4103 346.797 22.4354 332.567C11.2455 314.826 11.5957 296.326 23.4669 278.118C40.0795 252.637 61.3625 244.696 126.169 239.8C132.529 239.319 169.693 237.269 208.758 235.244C266.746 232.239 288.3 231.054 291.552 230.693C291.665 230.68 291.759 229.953 291.759 229.077C291.759 228.201 292.41 227.313 293.204 227.105C293.999 226.897 294.743 226.684 294.856 226.631C294.969 226.578 295.062 227.466 295.062 228.603Z"/>
</mask>
<path fill-rule="evenodd" clip-rule="evenodd" d="M675.984 121.538C658.521 123.742 651.252 126.254 565.952 159.571C528.477 174.208 493.542 187.773 488.319 189.717C433.951 209.94 388.2 217.544 300.637 220.908C296.786 221.056 295.062 221.448 295.062 222.175C295.062 222.754 294.319 223.227 293.411 223.227C292.199 223.227 291.759 222.676 291.759 221.16C291.759 219.506 291.346 219.092 289.694 219.092C288.464 219.092 287.629 219.566 287.629 220.263C287.629 221.815 288.619 221.745 203.389 226.151C163.644 228.205 124.807 230.435 117.085 231.107C64.1945 235.705 41.8915 242.904 25.2038 260.767C5.21907 282.159 -0.194583 306.818 10.1025 329.559C20.36 352.21 39.8772 364.593 67.5319 365.996C76.0921 366.43 90.6111 365.412 180.678 358.062C186.129 357.618 209.356 355.754 232.295 353.922C282.329 349.924 280.719 350.107 288.447 347.547C296.79 344.783 303.362 340.673 310.62 333.679C319.357 325.259 323.276 319.541 335.877 296.828C348.526 274.026 352.096 269.673 362.162 264.786C377.534 257.323 409.899 251.669 442.069 250.827C462.399 250.294 503.753 251.641 508.321 252.985C518.887 256.094 520.736 267.135 511.475 271.812C505.757 274.699 495.667 274.347 469.764 270.359C456.475 268.313 445.481 267.061 440.859 267.068C426.728 267.088 411.579 271.534 397.903 279.673C388.204 285.445 375.62 297.38 371.806 304.426C369.183 309.27 368.979 310.183 368.979 317.089C368.979 325.505 370.108 328.664 374.873 333.577C378.364 337.176 382.823 339.54 388.367 340.73C393.035 341.732 405.041 341.068 442.649 337.724C485.927 333.877 507.25 329.64 537.812 318.819C564.629 309.323 572.968 307.46 588.67 307.46C607.744 307.46 625.852 313.694 642.759 326.08C645.257 327.91 657.335 337.45 669.6 347.277C681.864 357.106 699.703 371.262 709.242 378.736C731.167 395.916 737.101 401.671 738.443 407.06C740.206 414.145 736.915 420.313 729.845 423.178C728.507 423.721 662.931 439.432 584.121 458.094C505.311 476.755 437.857 492.757 434.223 493.654C410.431 499.525 394.168 516.976 391.841 539.131C389.561 560.835 399.825 581.148 417.854 590.612C426.254 595.022 432.65 596.477 443.308 596.402C454.51 596.322 457.142 595.656 492.861 583.845C520.659 574.654 562.779 560.767 619.634 542.049C637.122 536.292 667.04 526.42 686.117 520.112C843.243 468.157 955.946 431.346 963.201 429.61C981.37 425.262 997.449 423.355 1015.94 423.355C1032.08 423.356 1040.88 424.27 1075.52 429.544C1114.54 435.483 1119.77 436.068 1129.1 435.534C1148.53 434.424 1164.56 423.479 1174.39 404.607C1182.47 389.095 1193.94 358.301 1194.84 349.704C1195.57 342.805 1193.75 333.992 1190.23 327.388C1186.62 320.608 1178.37 313.009 1170.94 309.621C1167.75 308.163 1144.5 300.55 1119.29 292.704C896.924 223.495 903.376 225.613 881.416 214.636C863.477 205.668 852.351 197.937 819.432 171.564C777.898 138.289 758.312 128.492 722.456 123.055C710.179 121.192 685.183 120.377 675.984 121.538ZM717.914 131.923C749.259 135.942 770.637 145.408 800.089 168.308C805.54 172.546 817.061 181.633 825.692 188.502C856.788 213.25 873.632 223.15 904.465 234.798C910.197 236.963 970.634 256.127 1038.77 277.384C1106.9 298.641 1164.96 317.154 1167.79 318.523C1173.87 321.472 1180.55 328.154 1183.08 333.834C1185.78 339.905 1186.07 349.957 1183.73 357.01C1180.27 367.454 1169.53 393.985 1166.09 400.59C1158.93 414.329 1146.27 423.852 1132.35 425.975C1124.26 427.208 1117.62 426.515 1074.69 419.962C1038.39 414.421 1023.31 413.244 1002.88 414.362C978.58 415.692 963.717 418.863 929.753 429.965C916.126 434.42 805.003 471.022 682.814 511.303C560.625 551.584 458.236 585.11 455.283 585.806C448.376 587.433 437.144 587.443 430.949 585.827C413.246 581.21 400.775 564.411 400.775 545.181C400.775 527.439 411.873 511.503 428.591 505.24C431.04 504.322 443.158 501.168 455.52 498.23C467.881 495.293 534.486 479.492 603.529 463.119C672.573 446.745 730.785 432.754 732.89 432.028C737.744 430.353 742.886 425.964 745.793 421.011C747.719 417.73 748.059 416.223 748.059 410.95C748.059 399.113 744.316 394.421 719.064 374.597C711.845 368.93 693.303 354.197 677.859 341.858C641.327 312.67 635.986 309.114 620.46 303.638C607.594 299.1 601.427 298.061 587.838 298.144C572.588 298.235 563.665 299.965 544.892 306.469C511.407 318.07 498.005 321.504 471.388 325.302C457.745 327.249 417.005 330.755 402.014 331.274C389.194 331.717 388.691 331.671 385.127 329.741C377.684 325.711 375.626 316.3 380.406 308.16C383.225 303.358 393.405 293.687 400.424 289.141C411.698 281.84 425.179 277.224 437.527 276.438C443.805 276.039 448.426 276.518 467.259 279.525C496.123 284.133 506.652 284.407 514.592 280.757C528.515 274.36 531.378 259.201 520.511 249.418C514.996 244.453 510.113 243.186 492.448 242.136C472.15 240.93 423.651 241.689 411.512 243.405C373.639 248.757 356.978 254.207 345.58 264.973C340.58 269.696 338.88 272.251 329.779 288.715C324.171 298.862 317.621 310.142 315.226 313.781C309.957 321.787 301.364 330.413 294.649 334.439C285.981 339.635 281.598 340.504 252.572 342.78C226.773 344.804 224.101 344.855 147.229 344.807C68.3082 344.757 62.2627 344.562 53.4919 341.771C38.6706 337.056 28.4057 324.857 26.7391 309.978C24.4167 289.243 35.2523 271.936 57.4809 260.877C76.1433 251.592 84.0313 250.52 167.051 245.977C196.349 244.374 230.169 242.524 242.206 241.866C254.243 241.208 269.583 240.417 276.294 240.106C283.005 239.796 288.695 239.221 288.938 238.827C289.18 238.435 290.1 238.113 290.982 238.113C292.141 238.113 292.585 238.685 292.585 240.18C292.585 242.794 295.811 243.138 296.475 240.594C296.797 239.362 297.601 238.94 299.626 238.94C306.037 238.94 345.136 236.316 355.352 235.2C381.181 232.379 407.251 227.691 431.087 221.578C462.534 213.515 476.142 208.578 523.419 188.084C563.428 170.74 568.86 168.507 610.962 152.084C655.282 134.795 662.984 132.404 680.131 130.611C688.572 129.729 705.348 130.311 717.914 131.923ZM423.676 218.765C423.402 219.04 422.689 219.069 422.094 218.83C421.435 218.567 421.63 218.371 422.593 218.331C423.463 218.295 423.95 218.49 423.676 218.765ZM419.977 219.64C419.41 219.87 418.48 219.87 417.912 219.64C417.345 219.411 417.809 219.223 418.945 219.223C420.08 219.223 420.545 219.411 419.977 219.64ZM412.315 221.213C390.438 226.534 354.369 231.265 321.552 233.119C298.866 234.4 295.888 234.319 295.888 232.422C295.888 230.616 297.651 230.425 327.685 228.979C351.039 227.854 378.243 225.393 397.059 222.703C405.235 221.534 412.08 220.429 412.269 220.249C412.458 220.067 413.573 219.961 414.747 220.011C416.058 220.067 415.122 220.53 412.315 221.213ZM291.759 225.295C291.759 226.811 291.319 227.362 290.107 227.362C288.895 227.362 288.455 226.811 288.455 225.295C288.455 223.779 288.895 223.227 290.107 223.227C291.319 223.227 291.759 223.779 291.759 225.295ZM295.062 228.603C295.062 230.119 294.622 230.67 293.411 230.67C292.199 230.67 291.759 231.222 291.759 232.738C291.759 234.391 292.172 234.805 293.824 234.805C295.337 234.805 295.888 235.246 295.888 236.459C295.888 237.542 295.337 238.113 294.292 238.113C293.414 238.113 292.46 237.369 292.172 236.459C291.521 234.406 293.655 234.406 254.881 236.466C167.042 241.131 103.547 244.899 93.6793 246.031C67.4592 249.04 48.3483 257.367 35.121 271.55C26.1188 281.202 21.6839 292.01 21.7078 304.237C21.7499 325.872 34.082 341.35 56.1347 347.447C62.2966 349.15 64.7297 349.248 112.13 349.698L161.682 350.168L116.672 353.754C86.4272 356.165 69.9005 357.157 66.293 356.78C45.5692 354.614 31.4103 346.797 22.4354 332.567C11.2455 314.826 11.5957 296.326 23.4669 278.118C40.0795 252.637 61.3625 244.696 126.169 239.8C132.529 239.319 169.693 237.269 208.758 235.244C266.746 232.239 288.3 231.054 291.552 230.693C291.665 230.68 291.759 229.953 291.759 229.077C291.759 228.201 292.41 227.313 293.204 227.105C293.999 226.897 294.743 226.684 294.856 226.631C294.969 226.578 295.062 227.466 295.062 228.603Z" fill="white"/>
<path fill-rule="evenodd" clip-rule="evenodd" d="M675.984 121.538C658.521 123.742 651.252 126.254 565.952 159.571C528.477 174.208 493.542 187.773 488.319 189.717C433.951 209.94 388.2 217.544 300.637 220.908C296.786 221.056 295.062 221.448 295.062 222.175C295.062 222.754 294.319 223.227 293.411 223.227C292.199 223.227 291.759 222.676 291.759 221.16C291.759 219.506 291.346 219.092 289.694 219.092C288.464 219.092 287.629 219.566 287.629 220.263C287.629 221.815 288.619 221.745 203.389 226.151C163.644 228.205 124.807 230.435 117.085 231.107C64.1945 235.705 41.8915 242.904 25.2038 260.767C5.21907 282.159 -0.194583 306.818 10.1025 329.559C20.36 352.21 39.8772 364.593 67.5319 365.996C76.0921 366.43 90.6111 365.412 180.678 358.062C186.129 357.618 209.356 355.754 232.295 353.922C282.329 349.924 280.719 350.107 288.447 347.547C296.79 344.783 303.362 340.673 310.62 333.679C319.357 325.259 323.276 319.541 335.877 296.828C348.526 274.026 352.096 269.673 362.162 264.786C377.534 257.323 409.899 251.669 442.069 250.827C462.399 250.294 503.753 251.641 508.321 252.985C518.887 256.094 520.736 267.135 511.475 271.812C505.757 274.699 495.667 274.347 469.764 270.359C456.475 268.313 445.481 267.061 440.859 267.068C426.728 267.088 411.579 271.534 397.903 279.673C388.204 285.445 375.62 297.38 371.806 304.426C369.183 309.27 368.979 310.183 368.979 317.089C368.979 325.505 370.108 328.664 374.873 333.577C378.364 337.176 382.823 339.54 388.367 340.73C393.035 341.732 405.041 341.068 442.649 337.724C485.927 333.877 507.25 329.64 537.812 318.819C564.629 309.323 572.968 307.46 588.67 307.46C607.744 307.46 625.852 313.694 642.759 326.08C645.257 327.91 657.335 337.45 669.6 347.277C681.864 357.106 699.703 371.262 709.242 378.736C731.167 395.916 737.101 401.671 738.443 407.06C740.206 414.145 736.915 420.313 729.845 423.178C728.507 423.721 662.931 439.432 584.121 458.094C505.311 476.755 437.857 492.757 434.223 493.654C410.431 499.525 394.168 516.976 391.841 539.131C389.561 560.835 399.825 581.148 417.854 590.612C426.254 595.022 432.65 596.477 443.308 596.402C454.51 596.322 457.142 595.656 492.861 583.845C520.659 574.654 562.779 560.767 619.634 542.049C637.122 536.292 667.04 526.42 686.117 520.112C843.243 468.157 955.946 431.346 963.201 429.61C981.37 425.262 997.449 423.355 1015.94 423.355C1032.08 423.356 1040.88 424.27 1075.52 429.544C1114.54 435.483 1119.77 436.068 1129.1 435.534C1148.53 434.424 1164.56 423.479 1174.39 404.607C1182.47 389.095 1193.94 358.301 1194.84 349.704C1195.57 342.805 1193.75 333.992 1190.23 327.388C1186.62 320.608 1178.37 313.009 1170.94 309.621C1167.75 308.163 1144.5 300.55 1119.29 292.704C896.924 223.495 903.376 225.613 881.416 214.636C863.477 205.668 852.351 197.937 819.432 171.564C777.898 138.289 758.312 128.492 722.456 123.055C710.179 121.192 685.183 120.377 675.984 121.538ZM717.914 131.923C749.259 135.942 770.637 145.408 800.089 168.308C805.54 172.546 817.061 181.633 825.692 188.502C856.788 213.25 873.632 223.15 904.465 234.798C910.197 236.963 970.634 256.127 1038.77 277.384C1106.9 298.641 1164.96 317.154 1167.79 318.523C1173.87 321.472 1180.55 328.154 1183.08 333.834C1185.78 339.905 1186.07 349.957 1183.73 357.01C1180.27 367.454 1169.53 393.985 1166.09 400.59C1158.93 414.329 1146.27 423.852 1132.35 425.975C1124.26 427.208 1117.62 426.515 1074.69 419.962C1038.39 414.421 1023.31 413.244 1002.88 414.362C978.58 415.692 963.717 418.863 929.753 429.965C916.126 434.42 805.003 471.022 682.814 511.303C560.625 551.584 458.236 585.11 455.283 585.806C448.376 587.433 437.144 587.443 430.949 585.827C413.246 581.21 400.775 564.411 400.775 545.181C400.775 527.439 411.873 511.503 428.591 505.24C431.04 504.322 443.158 501.168 455.52 498.23C467.881 495.293 534.486 479.492 603.529 463.119C672.573 446.745 730.785 432.754 732.89 432.028C737.744 430.353 742.886 425.964 745.793 421.011C747.719 417.73 748.059 416.223 748.059 410.95C748.059 399.113 744.316 394.421 719.064 374.597C711.845 368.93 693.303 354.197 677.859 341.858C641.327 312.67 635.986 309.114 620.46 303.638C607.594 299.1 601.427 298.061 587.838 298.144C572.588 298.235 563.665 299.965 544.892 306.469C511.407 318.07 498.005 321.504 471.388 325.302C457.745 327.249 417.005 330.755 402.014 331.274C389.194 331.717 388.691 331.671 385.127 329.741C377.684 325.711 375.626 316.3 380.406 308.16C383.225 303.358 393.405 293.687 400.424 289.141C411.698 281.84 425.179 277.224 437.527 276.438C443.805 276.039 448.426 276.518 467.259 279.525C496.123 284.133 506.652 284.407 514.592 280.757C528.515 274.36 531.378 259.201 520.511 249.418C514.996 244.453 510.113 243.186 492.448 242.136C472.15 240.93 423.651 241.689 411.512 243.405C373.639 248.757 356.978 254.207 345.58 264.973C340.58 269.696 338.88 272.251 329.779 288.715C324.171 298.862 317.621 310.142 315.226 313.781C309.957 321.787 301.364 330.413 294.649 334.439C285.981 339.635 281.598 340.504 252.572 342.78C226.773 344.804 224.101 344.855 147.229 344.807C68.3082 344.757 62.2627 344.562 53.4919 341.771C38.6706 337.056 28.4057 324.857 26.7391 309.978C24.4167 289.243 35.2523 271.936 57.4809 260.877C76.1433 251.592 84.0313 250.52 167.051 245.977C196.349 244.374 230.169 242.524 242.206 241.866C254.243 241.208 269.583 240.417 276.294 240.106C283.005 239.796 288.695 239.221 288.938 238.827C289.18 238.435 290.1 238.113 290.982 238.113C292.141 238.113 292.585 238.685 292.585 240.18C292.585 242.794 295.811 243.138 296.475 240.594C296.797 239.362 297.601 238.94 299.626 238.94C306.037 238.94 345.136 236.316 355.352 235.2C381.181 232.379 407.251 227.691 431.087 221.578C462.534 213.515 476.142 208.578 523.419 188.084C563.428 170.74 568.86 168.507 610.962 152.084C655.282 134.795 662.984 132.404 680.131 130.611C688.572 129.729 705.348 130.311 717.914 131.923ZM423.676 218.765C423.402 219.04 422.689 219.069 422.094 218.83C421.435 218.567 421.63 218.371 422.593 218.331C423.463 218.295 423.95 218.49 423.676 218.765ZM419.977 219.64C419.41 219.87 418.48 219.87 417.912 219.64C417.345 219.411 417.809 219.223 418.945 219.223C420.08 219.223 420.545 219.411 419.977 219.64ZM412.315 221.213C390.438 226.534 354.369 231.265 321.552 233.119C298.866 234.4 295.888 234.319 295.888 232.422C295.888 230.616 297.651 230.425 327.685 228.979C351.039 227.854 378.243 225.393 397.059 222.703C405.235 221.534 412.08 220.429 412.269 220.249C412.458 220.067 413.573 219.961 414.747 220.011C416.058 220.067 415.122 220.53 412.315 221.213ZM291.759 225.295C291.759 226.811 291.319 227.362 290.107 227.362C288.895 227.362 288.455 226.811 288.455 225.295C288.455 223.779 288.895 223.227 290.107 223.227C291.319 223.227 291.759 223.779 291.759 225.295ZM295.062 228.603C295.062 230.119 294.622 230.67 293.411 230.67C292.199 230.67 291.759 231.222 291.759 232.738C291.759 234.391 292.172 234.805 293.824 234.805C295.337 234.805 295.888 235.246 295.888 236.459C295.888 237.542 295.337 238.113 294.292 238.113C293.414 238.113 292.46 237.369 292.172 236.459C291.521 234.406 293.655 234.406 254.881 236.466C167.042 241.131 103.547 244.899 93.6793 246.031C67.4592 249.04 48.3483 257.367 35.121 271.55C26.1188 281.202 21.6839 292.01 21.7078 304.237C21.7499 325.872 34.082 341.35 56.1347 347.447C62.2966 349.15 64.7297 349.248 112.13 349.698L161.682 350.168L116.672 353.754C86.4272 356.165 69.9005 357.157 66.293 356.78C45.5692 354.614 31.4103 346.797 22.4354 332.567C11.2455 314.826 11.5957 296.326 23.4669 278.118C40.0795 252.637 61.3625 244.696 126.169 239.8C132.529 239.319 169.693 237.269 208.758 235.244C266.746 232.239 288.3 231.054 291.552 230.693C291.665 230.68 291.759 229.953 291.759 229.077C291.759 228.201 292.41 227.313 293.204 227.105C293.999 226.897 294.743 226.684 294.856 226.631C294.969 226.578 295.062 227.466 295.062 228.603Z" stroke="white" stroke-width="4" mask="url(#path-1-outside-1_14_69)"/>
</svg>
