<svg width="1200" height="720" viewBox="0 0 1200 720" fill="none" xmlns="http://www.w3.org/2000/svg">
<path fill-rule="evenodd" clip-rule="evenodd" d="M263.287 1.59034C250.368 5.04997 237.784 16.4386 229.546 32.1275C226.931 37.1068 221.554 49.4562 217.596 59.5705C207.021 86.5951 200.402 96.3918 189.274 101.49C183.937 103.935 183.007 104.04 171.844 103.443C159.531 102.786 147.969 101.015 117.334 95.0971C92.5994 90.3194 80.0556 88.5209 71.5649 88.5341C43.0597 88.5809 18.7746 106.354 13.5589 130.985C9.222 151.469 14.0725 172.127 26.3845 185.608C39.4491 199.913 52.2299 204.588 135.135 225.383C158.909 231.347 186.437 238.496 196.308 241.271C239.365 253.374 291.635 272.814 372.625 306.845C422.459 327.785 441.329 335.404 472.558 347.191C498.046 356.812 505.082 359.386 537.289 370.879L565.538 380.524L567.01 375.951L568.589 371.614C570.325 366.843 571.746 362.394 571.746 361.728C571.746 361.062 546.714 352.241 535.106 348.127C482.947 329.637 447.836 315.87 372.117 284.224C288.075 249.1 239.842 231.519 191.582 218.419C184.31 216.445 159.917 210.208 137.376 204.559C67.4507 187.032 53.5318 182.455 44.1989 173.92C40.5709 170.601 37.8848 166.924 35.9299 162.6C33.3465 156.886 33.0383 155.08 33.0627 145.819C33.0881 136.224 33.3363 134.941 36.354 128.807C39.9952 121.405 44.3667 117.256 52.7486 113.247C57.3123 111.065 60.2466 110.485 68.6824 110.099C80.5448 109.557 87.0634 110.391 119.229 116.574C181.792 128.598 196.579 127.332 214.236 108.444C222.904 99.1705 227.548 90.6604 237.408 65.9747C246.76 42.5665 250.701 35.2319 257.373 28.8236C266.505 20.0519 273.132 18.7725 286.391 23.2174C312.244 31.8853 360.499 55.8981 467.215 113.199C538.653 151.558 554.416 158.655 573.457 161.032C590.314 163.136 605.323 157.785 626.632 142.073C639.085 132.891 649.267 126.793 655.038 125.058C660.386 123.452 671.573 123.779 677.475 125.715C688.29 129.261 697.916 135.244 769.519 182.928C809.671 209.667 853.128 238.527 866.091 247.06C891.577 263.839 895.898 267.724 901.551 278.935C906.326 288.402 907.744 294.786 911.662 324.442C915.541 353.813 916.69 361.367 918.863 371.833C925.554 404.047 937.808 417.688 970.169 428.945C981.696 432.954 995.857 436.765 1072.08 456.367C1124.84 469.933 1130.3 471.847 1140.33 480.255C1148.06 486.741 1153.01 493.348 1158.33 504.298C1164.88 517.784 1166.97 527.324 1166.93 543.484C1166.91 555.066 1166.29 559.292 1160.01 590.618C1156.22 609.545 1151.76 629.843 1150.11 635.726C1146.92 647.119 1137.96 667.921 1132.76 676.034C1123.88 689.877 1106.95 697.26 1079.74 699.153C1068.46 699.936 998.988 699.058 968.134 697.741C960.582 697.418 943.419 696.69 929.993 696.124C896.595 694.714 857.078 692.203 849.364 691.001C834.831 688.736 825.612 682.793 819.85 671.975C815.009 662.884 813.621 655.908 812.01 632.545C809.767 599.989 805.997 588.597 793.311 576.03C785.703 568.492 776.63 563.337 764.207 559.495C753.851 556.292 749.583 555.572 711.318 550.573C643.551 541.717 498.633 520.301 487.837 517.545C479.62 515.447 470.407 510.545 465.556 505.691C457.939 498.069 454.501 487.316 454.501 471.117C454.501 459.2 456.888 452.795 464.323 444.758C475.464 432.716 487.972 429.977 508.916 434.993C536.252 441.541 549.052 447.497 579.189 467.693C591.444 475.907 604.543 484.179 608.298 486.076C626.183 495.113 644.056 497.351 669.403 493.725C700.25 489.315 715.37 491.175 737.855 502.146C745.076 505.67 788.058 530.766 833.369 557.915C951.34 628.601 997.632 655.901 1010.67 662.473C1026.95 670.682 1048.42 673.913 1062.74 670.314C1088.37 663.874 1107.15 642.828 1115.82 610.84C1119.09 598.754 1118.85 581.274 1115.26 570.324C1109 551.222 1092.9 534.208 1070.35 522.88C1028.07 501.633 910.118 463.033 665.549 390.408C638.138 382.267 606.12 372.389 594.397 368.456C582.674 364.522 572.762 361.645 572.369 362.061C571.045 363.466 565.44 380.557 566.168 380.967C566.986 381.427 592.745 389.893 609.608 395.241C615.762 397.194 649.402 407.273 684.365 417.641C915.268 486.111 1033.15 525.299 1067.27 544.932C1078.08 551.15 1088.42 561.535 1092.97 570.742C1096.37 577.631 1096.77 579.322 1097.12 588.155C1097.59 600.442 1095.73 608.836 1089.7 621.572C1078.71 644.782 1059.63 654.964 1036.68 649.859C1022.68 646.744 1009.66 639.329 845.574 540.99C799.144 513.164 755.206 487.47 747.933 483.892C724.788 472.502 706.523 468.831 684.096 471.059C677.251 471.739 666.845 472.971 660.972 473.797C644.404 476.127 631.277 474.219 618.062 467.559C614.225 465.625 601.369 457.527 589.495 449.563C565.809 433.679 554.328 427.575 536.779 421.537C493.401 406.613 470.793 408.661 450.426 429.36C435.841 444.183 431.217 459.465 434.175 483.07C436.822 504.204 446.189 519.413 462.731 529.44C471.374 534.678 481.943 537.945 499.762 540.885C538.394 547.259 660.264 564.916 714.369 571.979C731.711 574.244 749.474 576.988 753.844 578.078C774.326 583.188 785.3 593.257 788.95 610.283C789.558 613.122 790.544 623.414 791.143 633.155C791.74 642.897 792.695 653.615 793.264 656.973C797.251 680.5 808.365 696.963 825.855 705.252C839.653 711.791 848.521 712.94 908.634 715.983C963.954 718.783 1001.16 719.869 1045.43 719.974C1087.96 720.075 1090.08 719.989 1100.16 717.758C1119.27 713.527 1131.37 707.679 1141.51 697.767C1148.49 690.949 1153.07 683.684 1159.84 668.71C1169.05 648.336 1171.78 638.176 1181.76 587.138L1188 555.19L1187.5 539.413C1187.09 526.608 1186.49 521.836 1184.34 514.076C1176.65 486.368 1160.12 465.093 1137.32 453.572C1130.26 450.005 1121.02 447.422 1051.03 429.451C985.777 412.697 975.422 409.697 964.395 404.344C944.255 394.569 940.761 385.794 932.611 324.503C930.091 305.547 927.444 289.791 925.865 284.336C921.032 267.647 912.054 253.995 899.95 244.931C889.246 236.916 707.887 117.028 700.13 112.841C671.921 97.6102 649.157 99.8494 620.796 120.645C596.721 138.298 590.991 140.887 577.57 140.172C560.861 139.283 552.578 135.448 459.587 85.5528C371.47 38.2722 319.247 12.5677 293.8 3.94969C280.724 -0.477909 273.19 -1.06113 263.287 1.59034Z" fill="white"/>
</svg>
