<svg width="1200" height="720" viewBox="0 0 1200 720" fill="none" xmlns="http://www.w3.org/2000/svg">
<path fill-rule="evenodd" clip-rule="evenodd" d="M516.5 179.887C496.937 191.8 487.354 208.086 464.814 267.74C428.775 363.12 410.982 392.436 379.188 408.815C345.65 426.09 334.027 426.209 208.351 410.536C76.9646 394.157 60.5017 393.29 40.3898 401.706C9.47016 414.642 -4.31507 455.985 11.7677 487.55C28.5853 520.561 52.7137 524.964 240.508 529.273C311.356 530.901 376.071 532.728 384.324 533.341C531.856 544.248 1076.69 546.1 1103.37 535.782C1111.46 532.656 1118 524.896 1123.99 511.338C1132.19 492.794 1132.42 489.136 1127.54 456.26C1121.17 413.471 1122.77 410.701 1157.7 403.82C1186.6 398.128 1195 391.649 1195 375.05C1195 357.97 1185.26 351.415 1129.2 330.781C1069.82 308.93 825.983 229.184 796.706 222.05C761.103 213.368 726.898 221.378 693.849 246.138C679.16 257.142 616.789 336.152 601.082 363.653C583.373 394.664 590.143 415.535 621.663 427.097C648.634 436.992 734.462 451.777 746.938 448.677C765.272 444.127 775.733 430.37 791.533 390.042C812.549 336.397 824.446 323.947 854.698 323.947C870.975 323.947 979.416 369.392 993.442 382.087C1014.68 401.325 1023.87 439.999 1011.42 457.799C1003.58 469.006 985.417 473.459 901.473 484.767C836.909 493.462 828.441 493.648 711.419 488.924C549.768 482.395 537.891 480.699 520.309 461.614C511.732 452.301 506.583 442.334 506.583 435.034C506.583 415.902 525.918 363.565 555.347 303.035C585.975 240.04 591.917 216.053 581.012 199.391C567.02 178.009 535.319 168.426 516.5 179.887ZM562.4 204.25C574.631 215.334 570.517 231.032 536.709 302.253C485.263 410.633 479.266 440.456 503.099 469.408C510.477 478.369 523.202 488.497 531.379 491.923C549.594 499.543 653.744 505.739 783.217 506.902C925.255 508.179 1015.82 491.491 1029.45 461.529C1040.86 436.46 1032.27 396.644 1010.55 373.938C1004.58 367.688 971.78 350.146 937.422 334.82C884.068 311.019 871.634 307.031 850.787 307.031C827.774 307.031 825.481 308.008 808.591 325.005C795.456 338.224 787.043 352.743 776.776 379.897C769.102 400.204 758.345 421.028 752.876 426.175L742.926 435.538L691.273 425.714C589.21 406.307 588.661 404.383 659.108 313.003C708.809 248.54 737.101 231.011 781.853 236.953C805.419 240.082 1135.5 348.873 1161.08 361.941C1170.75 366.88 1177.9 373.19 1176.98 375.964C1176.06 378.734 1163.16 384.185 1148.31 388.072C1107.44 398.771 1100.69 411.483 1110.8 458.679C1116.36 484.657 1110.16 511.892 1097.08 518.904C1081.08 527.476 719.27 528.761 523.477 520.938C429.4 517.182 298.263 513.063 232.061 511.791C106.558 509.372 61.8447 505.494 42.1974 495.319C18.2084 482.898 14.9057 444.977 36.0777 425.062C45.724 415.987 50.6949 414.883 81.4161 414.968C100.392 415.023 163.65 421.383 221.992 429.101C325.344 442.778 328.756 442.964 355.03 436.324C409.056 422.665 431.761 396.69 466.938 308.309C500.556 223.843 503.407 217.631 514.713 204.174C523.418 193.813 527.143 192.337 539.522 194.35C547.533 195.653 557.83 200.106 562.4 204.25Z" fill="white"/>
</svg>
