<svg width="1200" height="720" viewBox="0 0 1200 720" fill="none" xmlns="http://www.w3.org/2000/svg">
<path fill-rule="evenodd" clip-rule="evenodd" d="M158.003 209.427C106.622 209.974 63.0183 211.057 44.2334 212.254C38.0424 212.648 37.3168 212.799 33.966 214.388C20.6316 220.713 9.35195 236.285 5.92305 253.104C4.68408 259.181 4.69469 285.19 5.9409 296.607C9.54542 329.634 17.0835 367.172 32.5384 429.062C37.8026 450.143 39.1969 453.457 45.359 459.542C60.0178 474.018 84.7482 466.451 92.3215 445.172C94.7386 438.38 96.3737 428.007 101.803 385.033C108.612 331.133 112.211 309.721 116.288 298.837C119.108 291.309 130.789 280.069 138.666 277.304C140.915 276.514 143.994 276.361 166.725 275.909C190.932 275.426 213.959 274.794 228.926 274.2C240.791 273.729 353.33 269.661 368.359 269.159C420.292 267.427 464.597 267.435 476.673 269.177C489.374 271.01 496.245 279.003 502.527 299.257C506.894 313.334 502.988 325.726 490.125 338.612C470.893 357.878 437.457 366.41 295.824 388.198C173.397 407.03 146.594 412.897 132.972 423.841C122.102 432.576 113.203 444.924 109.542 456.353C95.445 500.36 143.233 541.995 193.043 529.103C194.658 528.685 205.728 524.565 217.643 519.946C293.871 490.403 361.073 466.557 460.269 433.854L490.906 423.754L497.661 425.239C514.184 428.873 518.5 428.669 533.171 423.561C542.519 420.305 542.148 420.561 541.147 418.063C540.358 416.094 540.359 416.092 541.564 415.622C542.228 415.363 543.277 414.954 543.896 414.713C544.903 414.319 545.087 414.458 545.653 416.038C546 417.008 546.386 418.074 546.51 418.407C546.726 418.984 543.746 420.578 542.409 420.602C542.078 420.608 541.806 420.786 541.806 420.997C541.806 421.396 543.711 426.369 543.959 426.618C544.036 426.696 546.895 425.64 550.311 424.271C553.727 422.903 557.118 421.545 557.848 421.253C559.431 420.621 559.428 420.648 558.225 417.598C557.702 416.274 557.455 415.079 557.675 414.943C557.895 414.808 562.61 413.084 568.154 411.114C582.77 405.92 627.081 389.85 670.625 373.951C742.426 347.736 739.992 348.591 741.947 348.917C747.681 349.876 746.789 348.661 762.796 377.323C785.146 417.34 789.783 423.097 800.141 423.698C807.095 424.101 822.183 418.84 841.178 409.391C860.096 399.979 866.268 397.743 873.503 397.679C879.772 397.623 883.074 399.427 887.391 405.266C892.715 412.466 898.827 423.688 922.96 470.569C952.435 527.827 970.472 557.848 988.863 580.257C1012.52 609.084 1045.19 608.844 1085.55 579.547C1102.14 567.5 1112.51 557.72 1150.52 518.26C1180.52 487.108 1188.55 475.8 1193.52 457.673L1194.81 452.98L1194.97 411.537C1195.23 349.321 1193.67 293.225 1191.39 282.15C1184.49 248.725 1155.27 222.317 1115.46 213.529C1101.71 210.495 1118.72 210.766 915.719 210.337C813.954 210.122 676.415 209.713 610.076 209.429C476.791 208.858 211.519 208.857 158.003 209.427ZM625.515 224.873C708.041 225.161 848.62 225.559 937.912 225.757L1100.26 226.117L1106.54 227.373C1148.18 235.718 1174.95 260.675 1177.42 293.475C1179.46 320.445 1180.29 447.262 1178.47 453.944C1174.69 467.87 1166 480.121 1143.93 502.616C1137.43 509.243 1127.66 519.415 1122.22 525.219C1079.54 570.761 1045.47 591.228 1022.23 585.29C1012.52 582.811 1005.7 577.171 994.767 562.61C977.399 539.466 961.818 512.46 929.711 449.848C903.762 399.244 898.119 390.495 888.21 385.511C883.028 382.905 879.447 382.243 872.056 382.525C861.638 382.922 855.296 385.077 835.629 394.902C820.452 402.483 816.491 404.112 815.787 403.064C812.424 398.057 804.072 383.451 792.109 361.662C773.74 328.202 764.826 319.738 747.962 319.738C741.569 319.738 738.334 320.64 723.54 326.549C687.766 340.836 645.901 356.128 602.597 370.726C575.187 379.966 547.047 389.226 546.912 389.051C546.843 388.961 545.414 385.419 543.736 381.178C540.131 372.068 540.71 373.003 539.057 373.619C535.284 375.025 525.617 379.087 525.328 379.388C525.146 379.578 526.316 382.941 527.928 386.862C529.643 391.035 530.678 394.162 530.423 394.401C530.182 394.627 519.89 398.103 507.551 402.126C405.771 435.309 357.616 451.659 298.16 473.221C267.903 484.194 238.404 495.282 208.18 507.041C185.579 515.835 180.261 517.051 169.389 515.914C139.163 512.753 117.303 487.809 123.511 463.564C126.001 453.841 135.263 440.921 144.094 434.852C152.512 429.068 180.004 422.42 229.408 414.223C245.655 411.528 251.897 410.547 298.401 403.378C432.971 382.633 470.137 373.746 492.595 356.939C514.334 340.67 523.997 317.824 517.951 296.988C509.685 268.497 498.775 256.681 478.203 253.938C458.465 251.307 416.961 251.928 283.445 256.85C216.546 259.317 185.102 260.295 158.727 260.73C138.929 261.057 136.724 261.289 131.11 263.642C121.742 267.568 108.091 280.271 103.521 289.316C98.3229 299.601 94.0646 322.881 86.8493 380.456C79.8164 436.576 78.8032 441.536 73.2312 447.101C66.1389 454.185 57.18 452.722 52.7765 443.76C50.2204 438.558 35.3464 376.483 29.2364 345.519C19.2194 294.752 17.4536 261.335 24.0243 246.861C27.0083 240.288 32.4906 233.648 38.0014 229.932L41.246 227.744L51.3778 227.239C115.646 224.035 239.659 223.524 625.515 224.873Z" fill="white"/>
</svg>
